<svg width="1" height="1" xmlns="http://www.w3.org/2000/svg">
 <!-- Created with SVG Editor - http://github.com/mzalive/SVG Editor/ -->
 <g vector-effect="non-scaling-stroke" stroke-width='2px' stroke='#888' fill='none' opacity='.2'>
  <line x1="0" x2="1" y1="0.00" y2="0.00"/>
  <line x1="0" x2="1" y1="0.25" y2="0.25"/>
  <line x1="0" x2="1" y1="0.50" y2="0.50"/>
  <line x1="0" x2="1" y1="0.75" y2="0.75"/>
  <line x1="0" x2="1" y1="1.00" y2="1.00"/>

  <line y1="0" y2="1" x1="0.00" x2="0.00"/>
  <line y1="0" y2="1" x1="0.25" x2="0.25"/>
  <line y1="0" y2="1" x1="0.50" x2="0.50"/>
  <line y1="0" y2="1" x1="0.75" x2="0.75"/>
  <line y1="0" y2="1" x1="1.00" x2="1.00"/>
 </g>
 <g vector-effect="non-scaling-stroke" stroke-width='1px' stroke='#888' fill='none' opacity='.1'>
  <line x1="0" x2="1" y1="0.125" y2="0.125"/>
  <line x1="0" x2="1" y1="0.375" y2="0.375"/>
  <line x1="0" x2="1" y1="0.625" y2="0.625"/>
  <line x1="0" x2="1" y1="0.875" y2="0.875"/>

  <line y1="0" y2="1" x1="0.125" x2="0.125"/>
  <line y1="0" y2="1" x1="0.375" x2="0.375"/>
  <line y1="0" y2="1" x1="0.625" x2="0.625"/>
  <line y1="0" y2="1" x1="0.875" x2="0.875"/>
 </g>
</svg>